<?xml version="1.0" standalone="no"?>
<!DOCTYPE svg PUBLIC "-//W3C//DTD SVG 20010904//EN"
 "http://www.w3.org/TR/2001/REC-SVG-20010904/DTD/svg10.dtd">
<svg version="1.0" xmlns="http://www.w3.org/2000/svg"
 width="1406.000000pt" height="1406.000000pt" viewBox="0 0 1406.000000 1406.000000"
 preserveAspectRatio="xMidYMid meet">
<metadata>
Created by potrace 1.15, written by Peter Selinger 2001-2017
</metadata>
<g transform="translate(0.000000,1406.000000) scale(0.100000,-0.100000)"
fill="#7A76A9" stroke="none">
<path d="M5400 12966 c-322 -106 -591 -194 -598 -197 -7 -2 261 -127 597 -277
l610 -272 1015 0 1016 0 617 259 c340 142 633 265 652 273 34 13 23 17 -612
211 l-645 197 -1034 -1 -1033 -1 -585 -192z"/>
<path d="M4049 11823 l-596 -847 795 -283 c437 -156 798 -283 801 -283 7 0
791 1652 790 1665 0 9 -1176 597 -1189 595 -3 0 -273 -382 -601 -847z"/>
<path d="M8855 12329 c-409 -166 -609 -252 -607 -261 7 -27 684 -1703 690
-1710 8 -8 1601 418 1615 432 6 5 -1059 1760 -1082 1781 -3 3 -280 -106 -616
-242z"/>
<path d="M6011 12018 c-5 -13 -161 -378 -346 -813 -185 -434 -339 -796 -342
-802 -4 -10 335 -13 1676 -13 925 0 1681 3 1681 8 -1 4 -137 374 -303 822
l-303 815 -1027 3 -1027 2 -9 -22z"/>
<path d="M3518 10707 c5 -6 719 -941 1587 -2077 868 -1136 1584 -2072 1593
-2080 13 -13 13 -13 5 5 -5 11 -373 826 -818 1810 l-808 1790 -680 245 c-375
135 -728 262 -785 282 -57 21 -100 32 -94 25z"/>
<path d="M9748 10341 c-450 -120 -820 -220 -823 -222 -4 -5 -1582 -3393 -1657
-3559 -16 -36 -23 -58 -15 -50 8 8 752 915 1652 2015 901 1100 1645 2008 1653
2018 8 9 13 17 11 16 -2 0 -372 -99 -821 -218z"/>
<path d="M5323 10133 c2 -10 374 -868 827 -1908 452 -1039 827 -1903 834
-1919 11 -28 55 69 850 1900 461 1061 841 1932 843 1937 2 4 -753 7 -1678 7
-1596 0 -1681 -1 -1676 -17z"/>
<path d="M5151 6916 c-48 -17 -108 -71 -134 -119 l-22 -42 0 -2840 0 -2840 22
-41 c29 -54 93 -110 140 -123 118 -33 243 25 290 136 11 27 13 511 13 2865 l0
2833 -24 51 c-49 105 -177 159 -285 120z"/>
<path d="M8770 6918 c-55 -19 -134 -104 -148 -160 -9 -35 -12 -727 -12 -2846
0 -3104 -5 -2862 67 -2937 74 -76 174 -95 268 -51 59 27 96 67 119 128 15 39
16 285 14 2879 l-3 2836 -30 49 c-56 90 -176 134 -275 102z"/>
<path d="M2415 6116 c-60 -28 -87 -56 -114 -116 -20 -45 -21 -53 -21 -2085 l0
-2040 24 -50 c40 -87 115 -135 208 -135 101 0 190 63 224 157 11 31 13 398 14
2064 0 1788 -2 2032 -15 2070 -48 134 -192 196 -320 135z"/>
<path d="M4224 6116 c-58 -27 -106 -80 -123 -135 -16 -55 -16 -4077 1 -4132
15 -53 69 -113 124 -139 101 -49 236 -7 299 94 l30 49 3 2026 c2 1441 0 2041
-8 2077 -31 147 -188 224 -326 160z"/>
<path d="M6050 6127 c-48 -15 -126 -95 -139 -143 -15 -52 -15 -4083 -1 -4135
13 -48 75 -118 124 -140 91 -41 224 -10 282 67 57 74 54 -44 54 2138 0 1437
-3 2022 -11 2051 -37 133 -173 205 -309 162z"/>
<path d="M7861 6126 c-49 -18 -106 -70 -130 -119 l-21 -43 0 -2047 c0 -2245
-5 -2077 61 -2152 123 -140 360 -75 399 109 8 36 10 635 8 2071 l-3 2020 -21
40 c-61 112 -180 162 -293 121z"/>
<path d="M9671 6126 c-49 -18 -111 -74 -132 -120 -18 -40 -19 -114 -19 -2089
0 -2262 -5 -2084 63 -2156 128 -134 359 -69 397 113 7 35 9 680 8 2071 l-3
2020 -22 40 c-28 52 -78 100 -125 119 -44 19 -119 20 -167 2z"/>
<path d="M11485 6129 c-45 -12 -115 -77 -136 -123 -18 -39 -19 -121 -19 -2089
0 -2262 -5 -2084 63 -2156 44 -47 101 -71 167 -71 93 0 166 46 212 131 l23 44
0 2050 0 2050 -22 40 c-28 52 -78 100 -125 119 -40 17 -115 19 -163 5z"/>
<path d="M3330 5495 c-46 -21 -96 -70 -123 -120 l-22 -40 0 -1395 0 -1395 22
-41 c44 -83 127 -134 218 -134 87 0 192 78 216 160 6 23 9 506 7 1432 l-3
1396 -30 43 c-50 71 -101 101 -182 106 -48 2 -78 -1 -103 -12z"/>
<path d="M6944 5491 c-22 -10 -57 -36 -78 -57 -70 -72 -67 15 -64 -1515 l3
-1374 22 -41 c64 -120 195 -166 311 -108 60 30 104 79 121 133 17 57 16 2768
-1 2825 -16 54 -90 128 -144 144 -59 17 -122 15 -170 -7z"/>
<path d="M10552 5484 c-57 -28 -97 -73 -118 -131 -11 -31 -13 -290 -14 -1409
0 -1521 -4 -1426 66 -1498 54 -55 89 -70 170 -71 61 0 77 4 119 30 31 19 61
49 80 79 l30 49 3 1391 c2 1263 1 1395 -14 1434 -49 131 -197 189 -322 126z"/>
</g>
</svg>
